<svg xmlns="http://www.w3.org/2000/svg" viewBox="0 0 128 64" width="128" height="64" shape-rendering="crispEdges"><rect width="128" height="64" fill="#fff"/><path fill="#000" d="M0 0h123v1H0zM124 0h4v1H124zM0 1h123v1H0zM124 1h4v1H124zM0 2h123v1H0zM124 2h4v1H124zM0 3h123v1H0zM124 3h4v1H124zM0 4h123v1H0zM124 4h4v1H124zM0 5h4v1H0zM6 5h1v1H6zM9 5h7v1H9zM18 5h29v1H18zM49 5h4v1H49zM57 5h23v1H57zM82 5h41v1H82zM124 5h4v1H124zM0 6h4v1H0zM6 6h1v1H6zM9 6h38v1H9zM49 6h4v1H49zM55 6h1v1H55zM58 6h22v1H58zM82 6h41v1H82zM124 6h4v1H124zM0 7h4v1H0zM6 7h1v1H6zM9 7h1v1H9zM14 7h2v1H14zM18 7h1v1H18zM21 7h1v1H21zM24 7h2v1H24zM29 7h2v1H29zM33 7h1v1H33zM36 7h2v1H36zM40 7h2v1H40zM46 7h1v1H46zM49 7h4v1H49zM55 7h1v1H55zM58 7h2v1H58zM63 7h2v1H63zM72 7h3v1H72zM78 7h2v1H78zM83 7h2v1H83zM88 7h3v1H88zM93 7h30v1H93zM124 7h4v1H124zM0 8h4v1H0zM6 8h1v1H6zM9 8h1v1H9zM12 8h1v1H12zM15 8h1v1H15zM18 8h1v1H18zM21 8h1v1H21zM24 8h1v1H24zM27 8h1v1H27zM30 8h1v1H30zM35 8h2v1H35zM39 8h2v1H39zM43 8h1v1H43zM46 8h1v1H46zM49 8h4v1H49zM57 8h2v1H57zM61 8h1v1H61zM64 8h1v1H64zM67 8h1v1H67zM70 8h1v1H70zM73 8h1v1H73zM76 8h1v1H76zM79 8h1v1H79zM82 8h2v1H82zM86 8h1v1H86zM89 8h1v1H89zM92 8h31v1H92zM124 8h4v1H124zM0 9h4v1H0zM6 9h1v1H6zM9 9h1v1H9zM12 9h1v1H12zM15 9h1v1H15zM18 9h1v1H18zM21 9h1v1H21zM24 9h1v1H24zM30 9h1v1H30zM33 9h5v1H33zM40 9h1v1H40zM43 9h1v1H43zM46 9h1v1H46zM49 9h4v1H49zM55 9h1v1H55zM58 9h1v1H58zM64 9h1v1H64zM67 9h1v1H67zM70 9h1v1H70zM73 9h1v1H73zM76 9h1v1H76zM79 9h1v1H79zM82 9h2v1H82zM89 9h2v1H89zM93 9h30v1H93zM124 9h4v1H124zM0 10h4v1H0zM6 10h1v1H6zM9 10h1v1H9zM12 10h1v1H12zM15 10h1v1H15zM18 10h1v1H18zM21 10h1v1H21zM24 10h1v1H24zM27 10h4v1H27zM33 10h5v1H33zM40 10h1v1H40zM43 10h1v1H43zM46 10h1v1H46zM49 10h4v1H49zM55 10h1v1H55zM58 10h1v1H58zM61 10h4v1H61zM67 10h1v1H67zM70 10h1v1H70zM73 10h1v1H73zM76 10h1v1H76zM79 10h1v1H79zM82 10h2v1H82zM86 10h5v1H86zM93 10h30v1H93zM124 10h4v1H124zM0 11h4v1H0zM9 11h1v1H9zM12 11h1v1H12zM15 11h1v1H15zM18 11h2v1H18zM23 11h3v1H23zM29 11h2v1H29zM33 11h4v1H33zM39 11h3v1H39zM46 11h1v1H46zM49 11h4v1H49zM55 11h1v1H55zM58 11h2v1H58zM63 11h2v1H63zM67 11h1v1H67zM70 11h1v1H70zM73 11h2v1H73zM78 11h3v1H78zM83 11h2v1H83zM88 11h2v1H88zM92 11h31v1H92zM124 11h4v1H124zM0 12h123v1H0zM124 12h4v1H124zM0 13h123v1H0zM124 13h4v1H124zM0 14h123v1H0zM124 14h4v1H124zM0 15h123v1H0zM124 15h4v1H124zM124 16h1v1H124zM127 16h1v1H127zM124 17h1v1H124zM127 17h1v1H127zM124 18h1v1H124zM127 18h1v1H127zM124 19h1v1H124zM127 19h1v1H127zM124 20h1v1H124zM127 20h1v1H127zM4 21h1v1H4zM124 21h1v1H124zM127 21h1v1H127zM4 22h1v1H4zM124 22h1v1H124zM127 22h1v1H127zM4 23h1v1H4zM11 23h3v1H11zM17 23h3v1H17zM22 23h1v1H22zM24 23h2v1H24zM28 23h4v1H28zM124 23h1v1H124zM127 23h1v1H127zM4 24h1v1H4zM10 24h1v1H10zM14 24h1v1H14zM20 24h1v1H20zM22 24h2v1H22zM26 24h1v1H26zM28 24h1v1H28zM32 24h1v1H32zM124 24h1v1H124zM127 24h1v1H127zM4 25h1v1H4zM10 25h5v1H10zM17 25h4v1H17zM22 25h1v1H22zM28 25h1v1H28zM32 25h1v1H32zM124 25h1v1H124zM127 25h1v1H127zM4 26h1v1H4zM10 26h1v1H10zM16 26h1v1H16zM20 26h1v1H20zM22 26h1v1H22zM28 26h1v1H28zM32 26h1v1H32zM124 26h1v1H124zM127 26h1v1H127zM4 27h5v1H4zM11 27h4v1H11zM17 27h4v1H17zM22 27h1v1H22zM28 27h1v1H28zM32 27h1v1H32zM124 27h1v1H124zM127 27h1v1H127zM124 28h1v1H124zM127 28h1v1H127zM124 29h1v1H124zM127 29h1v1H127zM124 30h1v1H124zM127 30h1v1H127zM124 31h1v1H124zM127 31h1v1H127zM124 32h1v1H124zM127 32h1v1H127zM124 33h1v1H124zM127 33h1v1H127zM124 34h1v1H124zM127 34h1v1H127zM124 35h1v1H124zM127 35h1v1H127zM124 36h1v1H124zM127 36h1v1H127zM4 37h4v1H4zM23 37h2v1H23zM124 37h1v1H124zM127 37h1v1H127zM4 38h1v1H4zM8 38h1v1H8zM24 38h1v1H24zM124 38h1v1H124zM127 38h1v1H127zM4 39h1v1H4zM8 39h1v1H8zM11 39h3v1H11zM16 39h4v1H16zM24 39h1v1H24zM29 39h3v1H29zM34 39h1v1H34zM38 39h1v1H38zM124 39h1v1H124zM127 39h1v1H127zM4 40h4v1H4zM10 40h1v1H10zM14 40h1v1H14zM16 40h1v1H16zM20 40h1v1H20zM24 40h1v1H24zM32 40h1v1H32zM34 40h1v1H34zM38 40h1v1H38zM124 40h1v1H124zM127 40h1v1H127zM4 41h1v1H4zM8 41h1v1H8zM10 41h5v1H10zM16 41h1v1H16zM20 41h1v1H20zM24 41h1v1H24zM29 41h4v1H29zM34 41h1v1H34zM38 41h1v1H38zM124 41h1v1H124zM127 41h1v1H127zM4 42h1v1H4zM8 42h1v1H8zM10 42h1v1H10zM16 42h1v1H16zM20 42h1v1H20zM24 42h1v1H24zM28 42h1v1H28zM32 42h1v1H32zM34 42h1v1H34zM38 42h1v1H38zM124 42h1v1H124zM127 42h1v1H127zM4 43h1v1H4zM8 43h1v1H8zM11 43h4v1H11zM16 43h4v1H16zM25 43h2v1H25zM29 43h4v1H29zM35 43h4v1H35zM124 43h1v1H124zM127 43h1v1H127zM16 44h1v1H16zM38 44h1v1H38zM124 44h1v1H124zM127 44h1v1H127zM16 45h1v1H16zM35 45h3v1H35zM124 45h1v1H124zM127 45h1v1H127zM124 46h1v1H124zM127 46h1v1H127zM124 47h1v1H124zM127 47h1v1H127zM124 48h1v1H124zM127 48h1v1H127zM124 49h1v1H124zM127 49h1v1H127zM124 50h1v1H124zM127 50h1v1H127zM124 51h1v1H124zM127 51h1v1H127zM124 52h1v1H124zM127 52h1v1H127zM4 53h4v1H4zM40 53h5v1H40zM66 53h1v1H66zM124 53h1v1H124zM127 53h1v1H127zM4 54h1v1H4zM8 54h1v1H8zM42 54h1v1H42zM124 54h1v1H124zM127 54h1v1H127zM4 55h1v1H4zM8 55h1v1H8zM11 55h3v1H11zM16 55h4v1H16zM23 55h3v1H23zM28 55h4v1H28zM42 55h1v1H42zM46 55h1v1H46zM50 55h1v1H50zM58 55h4v1H58zM65 55h2v1H65zM70 55h4v1H70zM124 55h1v1H124zM127 55h1v1H127zM4 56h4v1H4zM10 56h1v1H10zM14 56h1v1H14zM16 56h1v1H16zM18 56h1v1H18zM20 56h1v1H20zM26 56h1v1H26zM28 56h1v1H28zM32 56h1v1H32zM42 56h1v1H42zM47 56h1v1H47zM49 56h1v1H49zM58 56h1v1H58zM62 56h1v1H62zM66 56h1v1H66zM70 56h1v1H70zM74 56h1v1H74zM124 56h1v1H124zM127 56h1v1H127zM4 57h1v1H4zM8 57h1v1H8zM10 57h5v1H10zM16 57h1v1H16zM18 57h1v1H18zM20 57h1v1H20zM23 57h4v1H23zM28 57h1v1H28zM32 57h1v1H32zM42 57h1v1H42zM48 57h1v1H48zM58 57h1v1H58zM62 57h1v1H62zM66 57h1v1H66zM70 57h1v1H70zM74 57h1v1H74zM124 57h1v1H124zM127 57h1v1H127zM4 58h1v1H4zM8 58h1v1H8zM10 58h1v1H10zM16 58h1v1H16zM18 58h1v1H18zM20 58h1v1H20zM22 58h1v1H22zM26 58h1v1H26zM28 58h1v1H28zM32 58h1v1H32zM42 58h1v1H42zM47 58h1v1H47zM49 58h1v1H49zM58 58h1v1H58zM62 58h1v1H62zM66 58h1v1H66zM70 58h1v1H70zM74 58h1v1H74zM124 58h1v1H124zM127 58h1v1H127zM4 59h1v1H4zM8 59h1v1H8zM11 59h4v1H11zM16 59h1v1H16zM18 59h1v1H18zM20 59h1v1H20zM23 59h4v1H23zM28 59h4v1H28zM42 59h1v1H42zM46 59h1v1H46zM50 59h1v1H50zM58 59h4v1H58zM66 59h2v1H66zM70 59h1v1H70zM74 59h1v1H74zM124 59h1v1H124zM127 59h1v1H127zM28 60h1v1H28zM58 60h1v1H58zM124 60h1v1H124zM127 60h1v1H127zM28 61h1v1H28zM58 61h1v1H58zM124 61h1v1H124zM127 61h1v1H127zM124 62h1v1H124zM127 62h1v1H127zM124 63h4v1H124z"/></svg>
